{
  "accessors": [
    {
      "bufferView": 2,
      "componentType": 5126,
      "count": 65532,
      "max": [
        0.1253509521484375,
        0.46417236328125,
        0.37347412109375
      ],
      "min": [
        -0.10849761962890625,
        -0.011444091796875,
        -0.49957275390625
      ],
      "type": "VEC3"
    },
    {
      "bufferView": 2,
      "byteOffset": 786384,
      "componentType": 5126,
      "count": 65532,
      "max": [
        0.9999691843986511,
        0.9999691247940063,
        0.9999692440032959
      ],
      "min": [
        -1.0,
        -0.9999386668205261,
        -1.0
      ],
      "type": "VEC3"
    },
    {
      "bufferView": 1,
      "componentType": 5126,
      "count": 65532,
      "max": [
        0.99658203125,
        0.9990234375
      ],
      "min": [
        0.0009765625,
        0.000244140625
      ],
      "type": "VEC2"
    },
    {
      "bufferView": 0,
      "componentType": 5125,
      "count": 345549,
      "type": "SCALAR"
    },
    {
      "bufferView": 2,
      "byteOffset": 1572768,
      "componentType": 5126,
      "count": 65532,
      "max": [
        0.0852813720703125,
        0.1376800537109375,
        0.313873291015625
      ],
      "min": [
        -0.11939239501953125,
        -0.168731689453125,
        -0.499725341796875
      ],
      "type": "VEC3"
    },
    {
      "bufferView": 2,
      "byteOffset": 2359152,
      "componentType": 5126,
      "count": 65532,
      "max": [
        0.9999691843986511,
        0.9999692440032959,
        0.9999380707740784
      ],
      "min": [
        -0.9999692440032959,
        -0.999752402305603,
        -1.0
      ],
      "type": "VEC3"
    },
    {
      "bufferView": 1,
      "byteOffset": 524256,
      "componentType": 5126,
      "count": 65532,
      "max": [
        0.9521484375,
        0.9990234375
      ],
      "min": [
        0.000244140625,
        0.0009765625
      ],
      "type": "VEC2"
    },
    {
      "bufferView": 0,
      "byteOffset": 1382196,
      "componentType": 5125,
      "count": 317547,
      "type": "SCALAR"
    },
    {
      "bufferView": 2,
      "byteOffset": 3145536,
      "componentType": 5126,
      "count": 65532,
      "max": [
        0.077850341796875,
        0.002676248550415039,
        0.282684326171875
      ],
      "min": [
        -0.12067413330078125,
        -0.1575775146484375,
        -0.5
      ],
      "type": "VEC3"
    },
    {
      "bufferView": 2,
      "byteOffset": 3931920,
      "componentType": 5126,
      "count": 65532,
      "max": [
        0.9999691247940063,
        0.9999690651893616,
        0.9999691843986511
      ],
      "min": [
        -1.0,
        -0.9999691247940063,
        -1.0
      ],
      "type": "VEC3"
    },
    {
      "bufferView": 1,
      "byteOffset": 1048512,
      "componentType": 5126,
      "count": 65532,
      "max": [
        0.965087890625,
        0.950439453125
      ],
      "min": [
        0.012939453125,
        0.152587890625
      ],
      "type": "VEC2"
    },
    {
      "bufferView": 0,
      "byteOffset": 2652384,
      "componentType": 5125,
      "count": 342894,
      "type": "SCALAR"
    },
    {
      "bufferView": 2,
      "byteOffset": 4718304,
      "componentType": 5126,
      "count": 65532,
      "max": [
        0.12530517578125,
        0.001170516014099121,
        0.309326171875
      ],
      "min": [
        -0.1253509521484375,
        -0.46417236328125,
        -0.251708984375
      ],
      "type": "VEC3"
    },
    {
      "bufferView": 2,
      "byteOffset": 5504688,
      "componentType": 5126,
      "count": 65532,
      "max": [
        1.0,
        0.9961475133895874,
        0.9998456835746765
      ],
      "min": [
        -0.9999704957008362,
        -0.9999691247940063,
        -1.0
      ],
      "type": "VEC3"
    },
    {
      "bufferView": 1,
      "byteOffset": 1572768,
      "componentType": 5126,
      "count": 65532,
      "max": [
        0.989013671875,
        0.99951171875
      ],
      "min": [
        0.002197265625,
        0.00927734375
      ],
      "type": "VEC2"
    },
    {
      "bufferView": 0,
      "byteOffset": 4023960,
      "componentType": 5125,
      "count": 349569,
      "type": "SCALAR"
    },
    {
      "bufferView": 2,
      "byteOffset": 6291072,
      "componentType": 5126,
      "count": 65532,
      "max": [
        0.08550262451171875,
        0.11568450927734375,
        0.5
      ],
      "min": [
        -0.1253509521484375,
        -0.175079345703125,
        -0.499847412109375
      ],
      "type": "VEC3"
    },
    {
      "bufferView": 2,
      "byteOffset": 7077456,
      "componentType": 5126,
      "count": 65532,
      "max": [
        0.9999693632125854,
        0.9999690651893616,
        0.9999692440032959
      ],
      "min": [
        -1.0,
        -1.0,
        -1.0
      ],
      "type": "VEC3"
    },
    {
      "bufferView": 1,
      "byteOffset": 2097024,
      "componentType": 5126,
      "count": 65532,
      "max": [
        0.953125,
        1.0
      ],
      "min": [
        0.000244140625,
        0.0439453125
      ],
      "type": "VEC2"
    },
    {
      "bufferView": 0,
      "byteOffset": 5422236,
      "componentType": 5125,
      "count": 285414,
      "type": "SCALAR"
    },
    {
      "bufferView": 2,
      "byteOffset": 7863840,
      "componentType": 5126,
      "count": 65532,
      "max": [
        0.08480072021484375,
        0.168548583984375,
        0.4993896484375
      ],
      "min": [
        -0.12506103515625,
        -0.0171966552734375,
        -0.45672607421875
      ],
      "type": "VEC3"
    },
    {
      "bufferView": 2,
      "byteOffset": 8650224,
      "componentType": 5126,
      "count": 65532,
      "max": [
        0.9999691247940063,
        0.9999691247940063,
        0.9998761415481567
      ],
      "min": [
        -1.0,
        -1.0,
        -0.9993817806243896
      ],
      "type": "VEC3"
    },
    {
      "bufferView": 1,
      "byteOffset": 2621280,
      "componentType": 5126,
      "count": 65532,
      "max": [
        0.981201171875,
        0.99951171875
      ],
      "min": [
        0.1474609375,
        0.009033203125
      ],
      "type": "VEC2"
    },
    {
      "bufferView": 0,
      "byteOffset": 6563892,
      "componentType": 5125,
      "count": 281220,
      "type": "SCALAR"
    },
    {
      "bufferView": 2,
      "byteOffset": 9436608,
      "componentType": 5126,
      "count": 1800,
      "max": [
        -0.0009071230888366699,
        0.11419677734375,
        -0.16021728515625
      ],
      "min": [
        -0.096771240234375,
        0.032863616943359375,
        -0.489501953125
      ],
      "type": "VEC3"
    },
    {
      "bufferView": 2,
      "byteOffset": 9458208,
      "componentType": 5126,
      "count": 1800,
      "max": [
        0.8840585947036743,
        0.9999383091926575,
        0.8439666628837585
      ],
      "min": [
        -0.9995971918106079,
        -0.9995987415313721,
        -0.9433969259262085
      ],
      "type": "VEC3"
    },
    {
      "bufferView": 1,
      "byteOffset": 3145536,
      "componentType": 5126,
      "count": 1800,
      "max": [
        0.862060546875,
        0.651611328125
      ],
      "min": [
        0.212158203125,
        0.142333984375
      ],
      "type": "VEC2"
    },
    {
      "bufferView": 0,
      "byteOffset": 7688772,
      "componentType": 5125,
      "count": 5448,
      "type": "SCALAR"
    }
  ],
  "asset": {
    "extras": {
      "author": "adhamasalah (https://sketchfab.com/adhamAsalah)",
      "license": "CC-BY-4.0 (http://creativecommons.org/licenses/by/4.0/)",
      "source": "https://sketchfab.com/3d-models/realistic-male-character-c67725338c4d40fcafa5918009ccbc37",
      "title": "Realistic Male Character"
    },
    "generator": "Sketchfab-16.75.0",
    "version": "2.0"
  },
  "bufferViews": [
    {
      "buffer": 0,
      "byteLength": 7710564,
      "name": "floatBufferViews",
      "target": 34963
    },
    {
      "buffer": 0,
      "byteLength": 3159936,
      "byteOffset": 7710564,
      "byteStride": 8,
      "name": "floatBufferViews",
      "target": 34962
    },
    {
      "buffer": 0,
      "byteLength": 9479808,
      "byteOffset": 10870500,
      "byteStride": 12,
      "name": "floatBufferViews",
      "target": 34962
    }
  ],
  "buffers": [
    {
      "byteLength": 20350308,
      "uri": "scene.bin"
    }
  ],
  "images": [
    {
      "uri": "textures/tripo_mat_d0bcade7_baseColor.jpeg"
    }
  ],
  "materials": [
    {
      "doubleSided": true,
      "name": "tripo_mat_d0bcade7",
      "pbrMetallicRoughness": {
        "baseColorTexture": {
          "index": 0
        },
        "metallicFactor": 0.0,
        "roughnessFactor": 0.8211145618000169
      }
    }
  ],
  "meshes": [
    {
      "name": "tripo_node_d0bcade7_tripo_mat_d0bcade7_0",
      "primitives": [
        {
          "attributes": {
            "NORMAL": 1,
            "POSITION": 0,
            "TEXCOORD_0": 2
          },
          "indices": 3,
          "material": 0,
          "mode": 4
        }
      ]
    },
    {
      "name": "tripo_node_d0bcade7_tripo_mat_d0bcade7_0",
      "primitives": [
        {
          "attributes": {
            "NORMAL": 5,
            "POSITION": 4,
            "TEXCOORD_0": 6
          },
          "indices": 7,
          "material": 0,
          "mode": 4
        }
      ]
    },
    {
      "name": "tripo_node_d0bcade7_tripo_mat_d0bcade7_0",
      "primitives": [
        {
          "attributes": {
            "NORMAL": 9,
            "POSITION": 8,
            "TEXCOORD_0": 10
          },
          "indices": 11,
          "material": 0,
          "mode": 4
        }
      ]
    },
    {
      "name": "tripo_node_d0bcade7_tripo_mat_d0bcade7_0",
      "primitives": [
        {
          "attributes": {
            "NORMAL": 13,
            "POSITION": 12,
            "TEXCOORD_0": 14
          },
          "indices": 15,
          "material": 0,
          "mode": 4
        }
      ]
    },
    {
      "name": "tripo_node_d0bcade7_tripo_mat_d0bcade7_0",
      "primitives": [
        {
          "attributes": {
            "NORMAL": 17,
            "POSITION": 16,
            "TEXCOORD_0": 18
          },
          "indices": 19,
          "material": 0,
          "mode": 4
        }
      ]
    },
    {
      "name": "tripo_node_d0bcade7_tripo_mat_d0bcade7_0",
      "primitives": [
        {
          "attributes": {
            "NORMAL": 21,
            "POSITION": 20,
            "TEXCOORD_0": 22
          },
          "indices": 23,
          "material": 0,
          "mode": 4
        }
      ]
    },
    {
      "name": "tripo_node_d0bcade7_tripo_mat_d0bcade7_0",
      "primitives": [
        {
          "attributes": {
            "NORMAL": 25,
            "POSITION": 24,
            "TEXCOORD_0": 26
          },
          "indices": 27,
          "material": 0,
          "mode": 4
        }
      ]
    }
  ],
  "nodes": [
    {
      "children": [
        1
      ],
      "matrix": [
        1.0,
        0.0,
        0.0,
        0.0,
        0.0,
        2.220446049250313e-16,
        -1.0,
        0.0,
        0.0,
        1.0,
        2.220446049250313e-16,
        0.0,
        0.0,
        0.0,
        0.0,
        1.0
      ],
      "name": "Sketchfab_model"
    },
    {
      "children": [
        2
      ],
      "matrix": [
        1.0,
        0.0,
        0.0,
        0.0,
        0.0,
        0.0,
        1.0,
        0.0,
        0.0,
        -1.0,
        0.0,
        0.0,
        0.0,
        0.0,
        0.0,
        1.0
      ],
      "name": "4df90d6a590c4f32a9eb6319bd095aa4.fbx"
    },
    {
      "children": [
        3
      ],
      "name": "RootNode"
    },
    {
      "children": [
        4,
        5,
        6,
        7,
        8,
        9,
        10
      ],
      "matrix": [
        1.0,
        0.0,
        0.0,
        0.0,
        0.0,
        -4.371139006309477e-08,
        -0.999999999999999,
        0.0,
        0.0,
        0.999999999999999,
        -4.371139006309477e-08,
        0.0,
        0.0,
        0.0,
        0.0,
        1.0
      ],
      "name": "tripo_node_d0bcade7"
    },
    {
      "mesh": 0,
      "name": "tripo_node_d0bcade7_tripo_mat_d0bcade7_0"
    },
    {
      "mesh": 1,
      "name": "tripo_node_d0bcade7_tripo_mat_d0bcade7_0"
    },
    {
      "mesh": 2,
      "name": "tripo_node_d0bcade7_tripo_mat_d0bcade7_0"
    },
    {
      "mesh": 3,
      "name": "tripo_node_d0bcade7_tripo_mat_d0bcade7_0"
    },
    {
      "mesh": 4,
      "name": "tripo_node_d0bcade7_tripo_mat_d0bcade7_0"
    },
    {
      "mesh": 5,
      "name": "tripo_node_d0bcade7_tripo_mat_d0bcade7_0"
    },
    {
      "mesh": 6,
      "name": "tripo_node_d0bcade7_tripo_mat_d0bcade7_0"
    }
  ],
  "samplers": [
    {
      "magFilter": 9729,
      "minFilter": 9987,
      "wrapS": 10497,
      "wrapT": 10497
    }
  ],
  "scene": 0,
  "scenes": [
    {
      "name": "Sketchfab_Scene",
      "nodes": [
        0
      ]
    }
  ],
  "textures": [
    {
      "sampler": 0,
      "source": 0
    }
  ]
}
